<?xml version="1.0" standalone="no"?>
<!DOCTYPE svg PUBLIC "-//W3C//DTD SVG 20010904//EN"
 "http://www.w3.org/TR/2001/REC-SVG-20010904/DTD/svg10.dtd">
<svg version="1.0" xmlns="http://www.w3.org/2000/svg"
 width="331.000000pt" height="331.000000pt" viewBox="0 0 331.000000 331.000000"
 preserveAspectRatio="xMidYMid meet">
<metadata>
Created by potrace 1.14, written by Peter Selinger 2001-2017
</metadata>
<g transform="translate(0.000000,331.000000) scale(0.100000,-0.100000)"
fill="#000000" stroke="none">
<path d="M1455 3166 c-137 -22 -236 -54 -360 -116 -253 -125 -413 -297 -491
-528 -61 -181 -64 -220 -75 -857 -5 -319 -8 -785 -7 -1035 l3 -455 210 0 210
0 3 403 2 402 295 0 295 0 0 -405 0 -405 208 2 207 3 3 403 2 402 200 0 200 0
2 -402 3 -403 210 0 210 0 3 900 c3 1150 -6 1336 -79 1511 -119 285 -386 490
-739 569 -101 23 -406 29 -515 11z m455 -441 c113 -28 227 -90 300 -164 71
-72 100 -123 124 -216 21 -80 36 -243 36 -397 l0 -128 -715 0 -715 0 0 118 c0
212 25 346 90 477 83 169 241 276 473 321 91 17 316 11 407 -11z"/>
</g>
</svg>
